<svg width="50" height="50" viewBox="0 0 50 50" fill="none" xmlns="http://www.w3.org/2000/svg">
<path fill-rule="evenodd" clip-rule="evenodd" d="M25 3.125C18.0964 3.125 12.5 8.72144 12.5 15.625C12.5 22.5286 18.0964 28.125 25 28.125C31.9034 28.125 37.5 22.5286 37.5 15.625C37.5 8.72144 31.9034 3.125 25 3.125ZM9.375 15.625C9.375 6.99556 16.3706 0 25 0C33.6294 0 40.625 6.99556 40.625 15.625C40.625 23.7271 34.4584 30.3889 26.5625 31.1728V37.5H32.8125C33.6753 37.5 34.375 38.1997 34.375 39.0625C34.375 39.9253 33.6753 40.625 32.8125 40.625H26.5625V48.4375C26.5625 49.3003 25.8629 50 25 50C24.1371 50 23.4375 49.3003 23.4375 48.4375V40.625H17.1875C16.3246 40.625 15.625 39.9253 15.625 39.0625C15.625 38.1997 16.3246 37.5 17.1875 37.5H23.4375V31.1728C15.5417 30.3889 9.375 23.7271 9.375 15.625Z" fill="black"/>
</svg>
