<svg width="50" height="53" viewBox="0 0 50 53" fill="none" xmlns="http://www.w3.org/2000/svg">
<path fill-rule="evenodd" clip-rule="evenodd" d="M29.6875 6.625C28.8246 6.625 28.125 5.88346 28.125 4.96875C28.125 4.05404 28.8246 3.3125 29.6875 3.3125H45.3125C46.1753 3.3125 46.875 4.05404 46.875 4.96875V21.5312C46.875 22.446 46.1753 23.1875 45.3125 23.1875C44.4497 23.1875 43.75 22.446 43.75 21.5312V8.9673L30.8483 22.6431C33.0516 25.4974 34.375 29.1486 34.375 33.125C34.375 42.2721 27.3794 49.6875 18.75 49.6875C10.1206 49.6875 3.125 42.2721 3.125 33.125C3.125 23.9778 10.1206 16.5625 18.75 16.5625C22.5013 16.5625 25.9458 17.9655 28.6386 20.3008L41.5403 6.625H29.6875ZM18.75 19.875C11.8464 19.875 6.25 25.8072 6.25 33.125C6.25 40.4426 11.8464 46.375 18.75 46.375C25.6536 46.375 31.25 40.4426 31.25 33.125C31.25 29.4656 29.8526 26.1554 27.5888 23.7558C25.3251 21.3563 22.2022 19.875 18.75 19.875Z" fill="black"/>
</svg>
